<?xml version="1.0" encoding="utf-8"?>
<!-- Generator: Adobe Illustrator 23.0.6, SVG Export Plug-In . SVG Version: 6.00 Build 0)  -->
<svg version="1.1" id="Layer_1" xmlns="http://www.w3.org/2000/svg" xmlns:xlink="http://www.w3.org/1999/xlink" x="0px" y="0px"
	 viewBox="0 0 54 78" style="enable-background:new 0 0 54 78;" xml:space="preserve">
<style type="text/css">
	svg{width:54px;height:78px;}
	.st0{fill:#179893;}
	.st1{fill:#464646;}
</style>
<path id="Path_2" class="st0" d="M25,78c-0.5,0-1-0.2-1.2-0.7c-0.4-0.7-0.2-1.6,0.5-2c0.2-0.1,0.4-0.2,0.6-0.4
	c3.9-2,8.1-2.4,12.6-1.2c0.8,0.2,1.2,1,1,1.8c-0.2,0.8-1,1.2-1.8,1c-3.8-1.1-7.2-0.8-10.4,0.9c-0.1,0.1-0.3,0.2-0.5,0.3
	C25.6,77.9,25.3,78,25,78z M16.7,75.5c5.2-0.9,8.3-4.3,10.6-6.8c1.3-1.4,2.6-2.7,3.4-2.7c0.5,0,1.5,0.9,2.3,1.7
	c2.5,2.3,6.8,6.1,13.4,1.9c0.7-0.4,0.9-1.3,0.5-2c-0.4-0.7-1.3-0.9-2-0.5c-4.8,3-7.4,0.6-9.9-1.6c-1.4-1.2-2.7-2.4-4.3-2.4
	c-2.1,0-3.7,1.7-5.6,3.6c-2.3,2.4-4.8,5.1-9,5.9c-0.8,0.1-1.3,0.9-1.2,1.7c0.1,0.7,0.7,1.2,1.4,1.2C16.5,75.5,16.6,75.5,16.7,75.5z
	 M48.7,10.9c0.6-0.6,0.5-1.5,0-2c-5.4-5.2-11.8-8.1-19-8.7C21-0.7,12.2,2.4,5.5,8.8c-0.6,0.5-0.6,1.5-0.1,2c0.5,0.6,1.5,0.6,2,0.1
	C13.6,5.1,21.6,2.2,29.4,3c6.6,0.5,12.4,3.2,17.3,7.9c0.3,0.3,0.6,0.4,1,0.4C48,11.3,48.4,11.2,48.7,10.9z M1.5,42
	c6.5-0.4,7.9-5.4,8.7-10c0.3-1.9,1-4.7,2.7-7.4c0.4-0.7,0.2-1.6-0.5-2c-0.7-0.4-1.6-0.2-2,0.5c-1.9,3.1-2.7,6.3-3,8.4
	c-0.8,4.9-2,7.4-6,7.6c-0.8,0-1.4,0.7-1.4,1.5C0,41.4,0.7,42,1.5,42C1.5,42,1.5,42,1.5,42z M48.4,62c0.3-0.7,0-1.6-0.7-1.9
	c-1.5-0.7-2.5-1.7-2.9-2.9c-0.6-1.8-0.1-3.7,0.2-4.5c2.9-6,5.1-15.9,2.1-23.9c-4.5-11.1-15.7-17-26.6-13.9c-2.2,0.7-4.2,1.7-5.9,3.2
	c-0.6,0.5-0.7,1.4-0.2,2c0.5,0.6,1.4,0.7,2.1,0.2c1.4-1.2,3.1-2.1,4.9-2.6c9.4-2.6,19.1,2.5,23,12.2c2.2,5.9,1.4,14.3-2,21.6
	c-0.2,0.3-1.5,3.4-0.4,6.7c0.7,2,2.2,3.5,4.5,4.6c0.2,0.1,0.4,0.1,0.6,0.1C47.7,62.9,48.2,62.6,48.4,62z M39.9,63.3
	c0.3-0.8-0.1-1.6-0.8-1.9c-3.1-1.2-2.4-4.1,0.1-11.1c2-5.9,4.6-13.1,1.8-19.5c-3.4-7.7-10.9-11.6-18.2-9.5
	c-5.4,1.7-8.9,6.8-9.6,13.8C13,37.3,11.6,44.7,2.6,46c-0.8,0.1-1.4,0.8-1.2,1.6c0.1,0.8,0.8,1.4,1.6,1.2c8.9-1.2,12.6-7.8,13.1-13.5
	c0.2-2.2,1.3-9.3,7.5-11.2c5.9-1.7,12,1.6,14.7,7.9c2.3,5.3,0.1,11.7-1.9,17.4C34.3,55.5,32,61.8,38,64.1c0.2,0.1,0.3,0.1,0.5,0.1
	C39.1,64.2,39.7,63.8,39.9,63.3z M13.3,71.5c0.8-0.3,1.2-1.1,0.9-1.9c-0.2-0.7-0.3-1.2-0.1-1.7c0.4-0.9,1.8-1.3,2.6-1.5l0.2-0.1
	c14.9-4.9,19.4-23.1,18.5-31.2c-0.4-3-2.3-5.9-4.8-7.3c-2-1.1-4.2-1.2-6.2-0.2c-4.1,2.1-4.3,5.4-4.5,8.8c-0.1,1.4-0.2,2.8-0.4,4.3
	c-1.3,6.9-8.7,11.7-14.6,11.7c-0.8,0-1.5,0.7-1.5,1.5c0,0.8,0.7,1.5,1.5,1.5c7.2,0,15.9-5.6,17.5-14.1c0.3-1.7,0.4-3.3,0.5-4.7
	c0.2-3.5,0.4-5.1,2.9-6.4c1.4-0.7,2.6-0.3,3.5,0.2c1.8,1,3.1,2.9,3.3,5.1c0.7,5.6-2.1,23.4-16.5,28.1l-0.2,0.1
	c-1.1,0.3-3.3,1.1-4.3,3c-0.6,1.1-0.6,2.5-0.1,3.9c0.2,0.6,0.8,1,1.4,1C12.9,71.6,13.1,71.6,13.3,71.5z M52.9,31.3
	c0.8-0.2,1.3-1,1.1-1.8c-1.4-5.7-4.3-10.8-8.6-15c-5.9-5.4-13.6-8.1-21.3-7.3C16.8,7.9,10.4,11.6,6,17.7c-2.3,3.4-3.8,7-4.7,10.5
	C1.2,29,1.6,29.8,2.4,30c0.8,0.2,1.6-0.3,1.8-1.1c0.8-3.2,2.2-6.5,4.2-9.5c3.9-5.3,9.5-8.6,16-9.2c6.8-0.7,13.8,1.7,19,6.5
	c3.8,3.8,6.5,8.5,7.7,13.6c0.2,0.7,0.8,1.1,1.4,1.1C52.7,31.3,52.8,31.3,52.9,31.3z M8.3,62.3c4.3-0.7,8-2.2,11-4.4
	c0.7-0.5,0.8-1.4,0.3-2c-0.5-0.7-1.4-0.8-2-0.3c-2.7,1.9-6,3.3-9.8,3.9c-0.8,0.1-1.3,0.9-1.2,1.7c0.1,0.7,0.7,1.2,1.4,1.2
	C8.1,62.4,8.2,62.4,8.3,62.3z"/>
<path id="Path_3" class="st1" d="M22.5,54c-0.3,0-0.6-0.1-0.9-0.3c-0.6-0.5-0.7-1.4-0.3-2c4.1-5.3,5-11.8,5-16.3
	c0-0.8,0.6-1.4,1.4-1.4s1.4,0.6,1.4,1.4c0,5-1,12.2-5.6,18.1C23.3,53.9,22.9,54,22.5,54z"/>
</svg>
