<?xml version="1.0" standalone="no"?>
<!DOCTYPE svg PUBLIC "-//W3C//DTD SVG 20010904//EN"
 "http://www.w3.org/TR/2001/REC-SVG-20010904/DTD/svg10.dtd">
<svg version="1.0" xmlns="http://www.w3.org/2000/svg"
 width="224.000000pt" height="224.000000pt" viewBox="0 0 224.000000 224.000000"
 preserveAspectRatio="xMidYMid meet">
<metadata>
Created by potrace 1.11, written by Peter Selinger 2001-2013
</metadata>
<g transform="translate(0.000000,224.000000) scale(0.100000,-0.100000)"
fill="#000000" stroke="none">
<path d="M508 2182 c-43 -65 -54 -86 -73 -137 -10 -27 -22 -54 -25 -60 -26
-36 -36 -214 -16 -265 4 -10 -13 -36 -49 -73 -53 -55 -115 -162 -115 -199 0
-9 -4 -19 -9 -22 -11 -7 -11 -196 0 -217 5 -10 1 -26 -12 -45 -10 -16 -29 -60
-41 -99 -19 -58 -23 -91 -23 -200 1 -114 4 -140 28 -212 15 -45 34 -94 42
-110 8 -15 15 -32 15 -36 0 -27 68 -142 98 -167 65 -54 170 -49 227 10 34 36
43 37 75 7 33 -30 124 -87 138 -87 7 0 12 -8 12 -19 0 -22 -23 -44 -35 -33 -5
4 -5 1 -1 -6 4 -7 11 -10 16 -7 15 9 31 -32 25 -65 -5 -30 -4 -30 17 -19 21
11 22 11 9 -5 -13 -15 -12 -16 13 -7 14 6 26 8 26 5 0 -2 9 0 20 6 13 7 20 7
20 1 0 -6 6 -9 13 -7 6 1 8 1 4 -2 -4 -2 -3 -10 4 -18 8 -9 8 -14 1 -14 -6 0
-14 5 -17 10 -4 6 -11 8 -16 4 -5 -3 -7 -10 -3 -15 3 -5 9 -7 14 -4 5 3 12 0
16 -6 5 -8 -1 -10 -17 -7 -19 3 -25 0 -25 -13 0 -12 7 -16 20 -13 23 4 66 50
66 71 0 7 5 13 11 13 5 0 7 -4 4 -10 -3 -6 1 -7 9 -4 12 5 16 0 16 -17 0 -18
-3 -20 -12 -11 -16 16 -31 15 -25 -2 3 -7 1 -18 -5 -24 -6 -6 -6 -12 1 -17 6
-3 10 -3 9 2 -2 4 2 8 7 8 6 0 9 -3 8 -6 -1 -4 9 -6 23 -5 20 1 22 3 9 12 -9
7 -13 18 -9 28 8 21 26 21 22 -1 -2 -12 5 -17 22 -18 19 -1 26 4 27 17 1 11
-5 18 -15 18 -15 0 -15 -2 -2 -10 13 -8 12 -10 -2 -10 -10 0 -18 7 -18 15 0 8
5 15 10 15 6 0 10 4 10 9 0 5 -11 8 -25 6 -29 -3 -31 1 -10 21 11 11 15 12 15
3 0 -7 3 -9 7 -5 5 4 8 13 8 19 0 7 13 13 29 15 19 3 26 0 21 -8 -5 -9 -2 -9
11 -2 25 13 36 13 53 -1 12 -10 13 -9 7 1 -6 10 0 13 25 10 30 -3 34 -6 35
-33 0 -16 -5 -34 -10 -38 -17 -13 37 4 61 19 29 18 39 18 23 -1 -10 -12 -10
-15 3 -15 9 0 19 5 23 11 3 6 19 9 35 7 16 -3 31 0 33 6 3 6 4 2 3 -9 -1 -12
5 -21 17 -23 10 -2 16 0 12 6 -3 5 6 14 19 20 15 7 25 20 25 32 0 11 5 20 10
20 6 0 10 9 10 20 0 11 6 20 13 20 6 0 4 5 -5 11 -30 17 -21 44 20 62 20 9 61
35 90 57 52 39 72 48 72 32 0 -13 38 -54 68 -74 42 -28 119 -24 165 8 30 20
48 46 83 121 86 185 124 320 124 438 0 81 -23 202 -50 262 -18 40 -22 69 -23
178 -2 128 -3 131 -39 208 -23 49 -57 99 -93 136 -51 54 -55 61 -45 85 33 88
-15 291 -102 429 -36 56 -58 60 -114 19 -62 -45 -105 -93 -127 -142 -12 -25
-22 -47 -22 -50 -8 -28 -20 -40 -34 -35 -115 48 -309 72 -443 55 -77 -9 -185
-34 -243 -56 -7 -3 -19 14 -30 43 -35 91 -119 182 -197 212 -24 9 -28 6 -50
-27z m742 -2057 c0 -8 -4 -15 -10 -15 -5 0 -7 7 -4 15 4 8 8 15 10 15 2 0 4
-7 4 -15z"/>
<path d="M713 214 c-17 -7 -4 -34 16 -34 13 0 13 -2 2 -9 -9 -6 -10 -11 -2
-15 6 -4 9 -12 6 -17 -3 -5 2 -6 11 -2 13 5 15 3 9 -7 -6 -9 -4 -11 4 -6 7 5
10 10 7 13 -3 3 -1 13 4 22 5 10 5 23 -1 32 -6 10 -9 10 -9 1 0 -10 -4 -10
-19 0 -11 7 -17 16 -15 20 6 9 5 9 -13 2z m51 -49 c-7 -16 -24 -21 -24 -6 0 8
7 13 27 20 1 1 0 -6 -3 -14z"/>
<path d="M1550 200 c6 -11 15 -18 21 -15 13 9 11 13 -12 25 -19 11 -20 10 -9
-10z"/>
<path d="M670 200 c0 -6 -4 -8 -10 -5 -6 3 -7 -1 -4 -10 4 -9 9 -12 13 -8 3 4
10 11 15 14 4 4 3 10 -3 13 -6 4 -11 2 -11 -4z"/>
<path d="M1515 202 c-6 -4 -16 -20 -23 -37 -11 -27 -11 -28 2 -12 11 14 15 15
19 5 2 -7 2 -2 0 10 -3 17 0 22 9 19 7 -2 12 -10 10 -16 -1 -7 2 -10 8 -6 8 5
7 12 -2 23 -7 10 -13 18 -13 19 0 1 -5 -1 -10 -5z"/>
<path d="M1628 193 c7 -3 16 -2 19 1 4 3 -2 6 -13 5 -11 0 -14 -3 -6 -6z"/>
<path d="M522 177 c-21 -12 -21 -27 1 -27 6 0 7 3 4 7 -4 3 1 12 11 19 22 17
14 17 -16 1z"/>
<path d="M1576 175 c-11 -8 -16 -18 -13 -22 4 -3 16 3 27 15 23 25 15 29 -14
7z"/>
<path d="M1656 181 c-4 -6 -2 -11 3 -11 6 0 11 -8 12 -17 0 -10 3 -13 5 -6 8
18 -11 49 -20 34z"/>
<path d="M1695 180 c-3 -5 -1 -10 5 -10 6 0 8 -4 5 -10 -3 -5 1 -10 9 -10 9 0
16 9 16 20 0 21 -24 28 -35 10z"/>
<path d="M595 170 c-3 -5 -3 -10 2 -10 4 0 1 -5 -7 -11 -12 -8 -12 -10 -1 -7
8 2 15 12 17 21 3 19 -2 22 -11 7z"/>
<path d="M628 173 c7 -3 16 -2 19 1 4 3 -2 6 -13 5 -11 0 -14 -3 -6 -6z"/>
<path d="M695 160 c3 -5 8 -10 11 -10 2 0 4 5 4 10 0 6 -5 10 -11 10 -5 0 -7
-4 -4 -10z"/>
<path d="M468 153 c7 -3 16 -2 19 1 4 3 -2 6 -13 5 -11 0 -14 -3 -6 -6z"/>
<path d="M1523 135 c-8 -9 -9 -16 -3 -20 13 -8 13 -45 -1 -45 -5 0 -7 5 -3 12
4 6 -5 3 -19 -8 -30 -22 -34 -31 -12 -31 23 0 67 45 59 59 -5 7 -2 9 9 5 11
-4 14 -2 10 8 -3 8 -10 12 -16 8 -6 -4 -8 0 -4 10 8 21 -3 21 -20 2z"/>
<path d="M1810 141 c0 -6 4 -13 10 -16 6 -3 7 1 4 9 -7 18 -14 21 -14 7z"/>
<path d="M535 120 c3 -5 8 -10 11 -10 2 0 4 5 4 10 0 6 -5 10 -11 10 -5 0 -7
-4 -4 -10z"/>
<path d="M687 120 c6 -8 13 -26 16 -40 l4 -25 2 26 c0 15 -7 33 -16 40 -16 12
-17 12 -6 -1z"/>
<path d="M1481 116 c-9 -10 -8 -15 3 -19 9 -4 18 -1 22 5 5 7 2 8 -6 3 -10 -6
-12 -4 -7 8 8 21 3 22 -12 3z"/>
<path d="M726 112 c-3 -5 1 -9 9 -9 8 0 12 4 9 9 -3 4 -7 8 -9 8 -2 0 -6 -4
-9 -8z"/>
<path d="M845 100 c-16 -7 -17 -9 -3 -9 9 -1 20 4 23 9 7 11 7 11 -20 0z"/>
<path d="M1176 98 c3 -5 10 -6 15 -3 13 9 11 12 -6 12 -8 0 -12 -4 -9 -9z"/>
<path d="M1324 99 c-5 -8 0 -11 18 -7 21 4 26 1 26 -18 0 -16 -6 -23 -17 -21
-9 1 -16 -2 -16 -8 0 -5 7 -9 15 -7 40 8 56 8 61 -1 4 -5 9 -5 13 2 4 6 2 11
-3 11 -6 0 -11 7 -11 16 0 8 -5 12 -10 9 -6 -4 -7 -12 -4 -18 4 -7 3 -8 -2 -4
-5 5 -9 19 -9 30 0 16 -7 23 -27 25 -14 2 -29 -2 -34 -9z"/>
<path d="M593 85 c0 -8 4 -12 9 -9 5 3 6 10 3 15 -9 13 -12 11 -12 -6z"/>
<path d="M773 84 c0 -16 13 -19 21 -5 3 5 0 11 -7 14 -8 3 -14 -1 -14 -9z"/>
<path d="M1259 88 c-15 -10 -15 -13 -1 -29 15 -17 16 -17 34 3 10 12 18 16 18
10 0 -7 6 -12 13 -12 6 1 1 10 -12 20 -26 23 -30 23 -52 8z"/>
<path d="M720 81 c0 -5 7 -14 15 -21 10 -9 15 -9 15 -1 0 6 -5 11 -11 11 -5 0
-7 5 -4 10 3 6 1 10 -4 10 -6 0 -11 -4 -11 -9z"/>
<path d="M1557 75 c-4 -8 -1 -17 5 -21 7 -5 8 -2 3 6 -6 10 -4 12 10 6 15 -5
16 -4 5 9 -15 19 -16 19 -23 0z"/>
<path d="M1428 68 c5 -5 16 -8 23 -6 8 3 3 7 -10 11 -17 4 -21 3 -13 -5z"/>
<path d="M805 59 c-4 -6 -5 -12 -2 -15 2 -3 7 2 10 11 7 17 1 20 -8 4z"/>
<path d="M836 57 c3 -10 9 -15 12 -12 3 3 0 11 -7 18 -10 9 -11 8 -5 -6z"/>
<path d="M1230 46 c0 -2 7 -7 16 -10 8 -3 12 -2 9 4 -6 10 -25 14 -25 6z"/>
<path d="M1290 40 c0 -5 5 -10 10 -10 6 0 10 5 10 10 0 6 -4 10 -10 10 -5 0
-10 -4 -10 -10z"/>
</g>
</svg>
