<?xml version="1.0" standalone="no"?>
<!DOCTYPE svg PUBLIC "-//W3C//DTD SVG 20010904//EN"
 "http://www.w3.org/TR/2001/REC-SVG-20010904/DTD/svg10.dtd">
<svg version="1.0" xmlns="http://www.w3.org/2000/svg"
 width="1248.000000pt" height="1248.000000pt" viewBox="0 0 1248.000000 1248.000000"
 preserveAspectRatio="xMidYMid meet">
<metadata>
Created by potrace 1.11, written by Peter Selinger 2001-2013
</metadata>
<g transform="translate(0.000000,1248.000000) scale(0.100000,-0.100000)"
fill="#000000" stroke="none">
<path d="M6147 12474 c-1 -1 -69 -5 -152 -8 -82 -4 -170 -9 -195 -11 -123 -12
-157 -15 -175 -19 -11 -2 -45 -7 -76 -10 -31 -4 -66 -8 -77 -11 -11 -2 -37 -6
-58 -9 -22 -4 -61 -11 -89 -16 -27 -5 -61 -12 -75 -14 -14 -2 -65 -14 -115
-26 -49 -12 -97 -23 -106 -25 -9 -2 -49 -13 -89 -25 -40 -12 -80 -23 -89 -25
-9 -2 -35 -10 -58 -18 -22 -9 -44 -13 -47 -10 -3 4 -6 0 -6 -7 0 -7 -3 -11 -6
-7 -3 3 -42 -7 -85 -23 -43 -16 -79 -27 -79 -24 0 4 -6 2 -12 -3 -7 -6 -67
-32 -133 -58 -159 -63 -457 -203 -463 -217 -2 -5 -8 -8 -13 -8 -13 0 -244
-132 -336 -192 -23 -16 -46 -28 -52 -28 -6 0 -11 -4 -11 -8 0 -4 -15 -16 -32
-26 -103 -60 -410 -295 -572 -440 -193 -171 -222 -213 -218 -314 4 -78 53
-158 115 -186 42 -18 94 -35 99 -31 1 1 22 5 45 9 49 6 92 27 125 59 104 100
276 243 423 353 91 68 100 74 215 150 179 119 189 125 310 192 25 14 59 32 75
40 17 9 32 18 35 22 3 3 21 12 40 20 19 7 42 20 52 27 9 8 22 16 30 17 7 2 54
22 103 45 138 66 273 120 279 114 3 -4 6 -1 6 5 0 7 8 12 18 12 10 0 22 3 26
8 4 4 11 7 14 7 4 1 39 12 77 25 39 13 72 25 75 25 3 1 12 4 20 8 72 28 381
107 515 132 70 13 198 34 203 33 4 0 9 1 12 2 3 1 19 4 35 5 17 2 53 6 80 10
186 23 417 30 635 20 69 -3 136 -5 149 -5 13 0 30 -5 37 -11 11 -9 14 -8 14 0
0 7 4 10 8 7 4 -2 44 -8 87 -11 44 -4 88 -9 98 -11 10 -2 46 -6 80 -10 34 -4
73 -8 87 -9 14 -2 25 -4 25 -5 0 -1 11 -3 25 -5 28 -3 71 -11 145 -25 91 -18
100 -20 125 -25 14 -3 75 -18 135 -35 61 -17 119 -33 130 -35 16 -4 111 -33
160 -49 6 -2 13 -4 18 -5 4 0 21 -8 37 -16 16 -8 32 -15 35 -14 8 1 101 -35
205 -80 46 -20 85 -34 86 -31 1 3 12 -4 24 -15 12 -11 24 -19 26 -17 14 11
533 -276 542 -299 2 -5 8 -9 12 -9 5 0 29 -14 52 -30 24 -17 61 -42 82 -57 22
-14 44 -29 50 -34 6 -5 45 -34 86 -66 41 -31 77 -59 80 -62 3 -3 21 -18 42
-33 20 -15 42 -33 50 -40 7 -7 42 -38 78 -68 36 -30 74 -64 86 -75 96 -92 143
-130 177 -145 77 -35 199 -10 253 52 27 30 56 78 48 78 -4 0 -2 6 3 13 17 21
8 119 -15 163 -17 34 -62 82 -161 174 -9 8 -48 42 -86 75 -38 33 -75 65 -81
70 -6 6 -28 24 -49 40 -21 17 -47 38 -57 48 -10 9 -21 17 -24 17 -3 0 -30 20
-58 45 -29 25 -58 45 -64 45 -6 0 -12 3 -14 8 -4 9 -145 112 -154 112 -3 0
-11 6 -19 13 -11 11 -37 27 -174 115 -20 12 -43 25 -51 29 -8 4 -31 16 -50 28
-270 168 -868 419 -1120 470 -8 2 -15 4 -15 5 0 3 -99 27 -140 35 -11 2 -20 4
-20 5 0 2 -9 4 -55 13 -14 3 -57 12 -96 21 -40 8 -100 20 -135 26 -35 5 -75
12 -89 14 -14 3 -47 7 -75 11 -27 3 -63 8 -80 10 -30 5 -84 11 -185 21 -30 3
-72 6 -92 6 -21 1 -38 5 -38 10 0 5 -8 4 -19 -1 -10 -6 -21 -8 -25 -4 -3 3
-54 8 -113 10 -214 7 -264 8 -266 7z"/>
<path d="M5969 11346 c-2 -2 -49 -7 -104 -11 -55 -3 -111 -8 -125 -10 -14 -2
-52 -6 -84 -10 -58 -7 -86 -12 -96 -15 -3 -1 -9 -2 -13 -1 -5 1 -47 -6 -95
-15 -48 -9 -96 -18 -107 -20 -108 -17 -435 -108 -550 -154 -65 -26 -141 -55
-145 -55 -3 -1 -27 -11 -54 -23 -27 -12 -50 -22 -53 -22 -13 0 -295 -144 -386
-197 -121 -70 -280 -174 -285 -185 -2 -5 -8 -8 -13 -8 -6 0 -15 -5 -22 -10 -7
-6 -34 -27 -62 -48 -258 -192 -526 -449 -731 -700 -10 -13 -27 -33 -37 -45
-10 -12 -26 -34 -35 -49 -9 -16 -19 -28 -22 -28 -4 0 -22 -23 -41 -51 -19 -28
-41 -61 -49 -73 -77 -115 -123 -187 -137 -216 -13 -25 -22 -41 -55 -91 -30
-45 -208 -399 -208 -413 0 -8 -7 -19 -15 -26 -9 -7 -13 -15 -11 -17 3 -3 -4
-21 -14 -41 -18 -36 -41 -92 -42 -102 0 -3 -6 -16 -13 -30 -38 -72 -179 -486
-221 -650 -23 -92 -21 -159 6 -217 87 -182 331 -185 424 -4 9 17 14 31 10 31
-4 0 -2 6 4 13 8 10 23 60 24 84 0 5 5 19 10 33 5 14 12 36 14 50 12 62 140
426 188 535 83 187 121 271 126 275 3 3 23 41 44 85 72 145 248 439 302 504
11 13 27 32 37 43 9 12 17 24 17 27 0 3 16 24 35 46 19 22 35 43 35 48 0 4 5
5 10 2 5 -3 10 -1 10 5 0 6 19 32 42 58 65 73 330 333 372 367 20 17 49 40 64
53 47 40 246 188 272 202 14 7 27 16 30 20 5 7 138 88 205 125 57 32 195 104
200 105 2 1 39 17 82 37 108 50 378 150 428 158 11 2 52 13 90 25 39 11 81 23
95 25 14 2 26 4 28 6 2 2 6 3 52 12 116 23 192 37 236 42 22 2 55 6 74 9 217
35 629 40 885 12 104 -12 193 -24 225 -31 14 -3 41 -8 60 -11 19 -3 41 -7 49
-10 8 -2 30 -7 50 -10 72 -10 344 -85 454 -125 61 -22 117 -41 122 -43 6 -2
23 -8 38 -14 16 -7 30 -12 32 -12 3 0 34 -13 70 -30 36 -16 68 -30 70 -30 3 0
63 -28 133 -62 147 -72 328 -175 457 -261 81 -54 322 -232 335 -246 3 -3 39
-35 80 -70 99 -85 262 -254 350 -361 11 -14 30 -36 43 -50 31 -34 154 -193
197 -255 19 -27 41 -56 47 -63 7 -7 25 -34 40 -60 15 -26 31 -51 36 -57 13
-16 96 -145 98 -153 1 -4 12 -23 24 -42 106 -169 273 -526 350 -745 15 -44 32
-91 38 -105 5 -14 11 -32 12 -40 2 -8 10 -34 18 -58 9 -23 16 -44 17 -47 0 -3
0 -6 1 -7 0 -2 3 -16 5 -33 3 -16 10 -35 16 -42 6 -7 8 -13 5 -13 -3 0 5 -38
18 -85 24 -85 43 -121 87 -162 105 -99 300 -51 373 91 31 59 11 214 -51 396
-9 25 -18 54 -20 64 -5 25 -23 86 -34 111 -4 11 -27 72 -50 135 -23 63 -50
134 -61 157 -10 24 -19 45 -19 48 0 13 -203 433 -230 475 -23 36 -90 152 -90
156 0 3 -51 86 -71 115 -6 9 -27 41 -48 72 -56 86 -184 262 -193 265 -4 2 -8
10 -8 17 0 7 -4 15 -8 17 -4 2 -35 37 -67 78 -33 41 -67 82 -75 90 -8 9 -40
45 -70 81 -62 72 -370 385 -370 375 0 -3 -12 5 -27 18 -33 28 -117 98 -156
129 -15 12 -33 27 -40 32 -7 6 -29 21 -49 35 -21 14 -38 28 -38 33 0 4 -6 7
-13 7 -8 0 -22 9 -32 20 -10 11 -24 20 -31 20 -7 0 -14 3 -16 8 -6 15 -333
222 -333 211 0 -2 -13 6 -30 17 -33 24 -245 133 -340 176 -155 69 -459 187
-500 192 -11 2 -27 6 -35 9 -58 22 -153 47 -160 42 -6 -4 -10 -2 -10 3 0 5 -6
9 -12 9 -7 0 -40 7 -73 16 -33 9 -71 18 -85 21 -162 32 -247 45 -257 41 -7 -2
-13 -1 -13 3 0 4 -15 9 -33 10 -18 1 -44 4 -57 7 -14 3 -54 8 -90 11 -36 3
-81 8 -100 10 -42 6 -576 15 -581 10z"/>
<path d="M5948 10225 c-2 -2 -46 -6 -98 -10 -52 -4 -102 -8 -110 -10 -8 -1
-40 -6 -70 -10 -30 -4 -64 -9 -75 -11 -11 -2 -40 -7 -65 -10 -25 -3 -48 -8
-51 -10 -3 -1 -39 -10 -80 -19 -41 -9 -82 -18 -91 -20 -42 -9 -174 -48 -183
-53 -5 -4 -16 -7 -22 -8 -47 -7 -454 -191 -473 -213 -3 -4 -16 -12 -30 -19
-24 -11 -50 -27 -74 -45 -6 -4 -48 -33 -93 -65 -72 -51 -120 -89 -190 -149
-61 -54 -87 -175 -52 -252 18 -42 69 -101 86 -101 6 0 16 -6 22 -14 16 -19
119 -30 167 -17 43 11 83 37 197 124 42 31 80 57 86 57 5 0 11 4 13 9 5 14
124 83 238 138 94 46 335 134 400 147 41 8 71 15 88 20 9 3 32 8 50 11 53 8
86 14 112 20 31 7 84 15 130 20 19 2 64 6 100 10 77 8 420 12 420 5 0 -3 28
-6 63 -7 57 -1 126 -7 187 -17 73 -12 106 -18 120 -21 8 -2 31 -7 50 -10 19
-3 69 -15 110 -26 41 -11 86 -22 100 -25 53 -11 241 -78 354 -126 318 -135
614 -326 869 -558 89 -81 267 -263 267 -273 0 -2 16 -21 36 -42 19 -21 75 -92
125 -159 49 -66 94 -127 99 -133 6 -7 7 -13 3 -13 -4 0 -3 -4 2 -8 23 -17 175
-270 175 -291 0 -6 4 -11 10 -11 5 0 9 -3 8 -7 -1 -5 19 -48 43 -98 62 -124
149 -345 164 -415 5 -24 33 -124 39 -140 3 -8 8 -32 11 -54 3 -21 7 -41 9 -45
2 -3 7 -24 10 -46 4 -22 8 -47 11 -55 6 -21 18 -109 19 -142 1 -16 3 -28 6
-28 3 0 6 -17 6 -38 1 -20 6 -75 10 -122 11 -109 11 -577 1 -695 -15 -168 -25
-272 -32 -310 -7 -42 -14 -84 -21 -130 -3 -22 -12 -71 -20 -110 -8 -38 -15
-77 -15 -85 -1 -8 -6 -35 -11 -60 -14 -63 -15 -67 -33 -140 -8 -36 -17 -72
-19 -80 -2 -8 -9 -35 -16 -60 -7 -25 -13 -49 -15 -55 -10 -45 -18 -73 -25 -90
-8 -18 -30 -93 -36 -122 -1 -7 -13 -43 -27 -80 -40 -109 -72 -198 -73 -203 0
-3 -5 -16 -11 -30 -6 -14 -21 -50 -32 -80 -12 -30 -31 -74 -41 -97 -11 -24
-20 -45 -20 -48 0 -2 -20 -46 -44 -97 -44 -93 -81 -190 -90 -241 -2 -15 -7
-30 -9 -35 -3 -4 -8 -27 -12 -52 -4 -25 -8 -47 -10 -50 -10 -16 -20 -162 -19
-285 0 -128 5 -199 19 -265 2 -14 7 -36 10 -49 10 -51 58 -189 85 -243 107
-214 259 -373 501 -523 134 -83 194 -108 260 -108 66 0 112 16 152 52 25 23
58 72 63 94 1 4 2 8 4 10 17 21 13 113 -6 168 -23 62 -54 91 -170 154 -86 46
-151 89 -166 110 -4 5 -8 7 -8 4 0 -11 -93 83 -125 126 -16 22 -32 42 -35 45
-22 22 -77 148 -86 200 -3 14 -9 42 -15 63 -16 61 -18 235 -3 337 14 94 21
135 24 135 1 0 3 8 5 17 7 38 30 100 82 218 53 120 74 169 78 180 1 3 6 16 12
30 6 14 18 42 26 63 9 20 13 37 10 37 -3 0 -1 6 5 13 15 18 153 432 167 502 2
6 12 44 23 85 12 41 24 90 27 109 3 19 8 37 10 41 2 3 6 17 8 31 3 13 10 42
15 64 6 22 13 53 16 69 3 16 10 52 15 80 12 60 19 98 27 146 3 19 7 46 10 60
2 14 7 43 9 65 3 22 8 54 10 70 3 17 7 46 9 65 2 19 7 60 11 90 4 30 9 80 10
110 2 30 4 55 5 55 10 0 15 564 6 695 -9 131 -27 288 -44 385 -5 28 -10 57
-10 65 0 8 -10 58 -22 110 -12 52 -23 106 -26 120 -3 14 -9 39 -14 55 -5 17
-21 71 -35 120 -14 50 -32 106 -39 125 -8 19 -24 62 -37 95 -13 33 -41 98 -63
145 -21 47 -40 87 -41 90 -5 21 -134 261 -150 280 -8 8 -13 17 -13 20 2 10
-141 230 -216 330 -83 112 -189 240 -199 240 -6 0 -8 3 -4 6 9 9 -195 221
-322 333 -35 31 -72 63 -81 72 -32 30 -226 176 -301 227 -169 113 -389 236
-564 313 -52 23 -273 109 -290 113 -5 1 -41 12 -80 24 -38 11 -90 26 -115 33
-25 7 -49 14 -55 15 -19 5 -60 15 -105 24 -25 5 -55 11 -66 14 -12 2 -39 7
-60 10 -22 4 -46 8 -54 11 -19 5 -95 15 -245 30 -66 7 -471 15 -477 10z"/>
<path d="M6095 9162 c-1 -2 -34 -5 -71 -7 -68 -5 -82 -6 -174 -21 -25 -4 -54
-8 -65 -10 -11 -1 -21 -3 -22 -4 -2 -2 -12 -4 -23 -5 -11 -1 -21 -3 -22 -5 -2
-1 -10 -3 -18 -5 -84 -17 -241 -68 -315 -101 -22 -10 -42 -18 -45 -19 -25 -8
-106 -50 -108 -56 -2 -5 -9 -9 -16 -9 -6 0 -43 -20 -80 -45 -38 -25 -71 -45
-74 -45 -6 0 -156 -118 -206 -161 -56 -49 -179 -177 -220 -229 -20 -25 -42
-52 -49 -60 -50 -55 -204 -303 -249 -400 -70 -150 -90 -198 -122 -290 -21 -58
-41 -116 -46 -130 -11 -29 -57 -203 -64 -240 -3 -14 -8 -36 -11 -50 -3 -14 -8
-34 -9 -45 -2 -11 -8 -47 -15 -80 -6 -33 -13 -78 -16 -100 -3 -22 -8 -51 -10
-65 -2 -14 -7 -52 -10 -85 -8 -76 -20 -169 -31 -222 -67 -348 -225 -683 -436
-923 -92 -105 -231 -233 -287 -264 -9 -5 -18 -12 -21 -15 -9 -11 -69 -51 -76
-51 -4 0 -21 -11 -38 -23 -26 -20 -196 -106 -271 -137 -36 -15 -100 -34 -107
-32 -5 1 -8 -2 -8 -6 0 -5 -6 -9 -12 -10 -19 -1 -50 -9 -79 -20 -32 -13 -239
-59 -299 -67 -25 -3 -54 -8 -65 -11 -35 -10 -105 -49 -105 -59 0 -6 -9 -16
-20 -22 -47 -30 -50 -182 -5 -258 31 -53 82 -94 125 -102 47 -7 90 -9 96 -4 3
3 13 6 22 7 15 0 119 16 132 19 3 1 23 5 45 9 152 30 381 100 515 158 153 67
399 204 408 229 2 5 9 9 16 9 7 0 21 8 32 18 10 9 39 33 64 52 71 55 108 89
200 182 113 115 116 119 193 223 89 120 98 133 96 141 0 4 4 10 9 13 10 6 71
114 112 196 14 28 29 53 35 57 5 4 6 8 1 8 -5 0 -3 7 4 15 7 8 10 15 6 15 -4
0 0 10 8 23 17 25 90 225 113 307 29 105 34 125 37 145 2 11 8 45 14 75 17 82
26 143 36 245 16 150 36 278 62 397 3 15 5 30 5 33 0 2 6 23 14 45 8 22 12 40
8 40 -3 0 -1 6 4 13 6 6 10 19 11 27 0 21 79 245 103 291 11 22 17 39 15 39
-14 0 168 322 185 328 5 2 9 8 9 13 0 17 110 149 181 219 70 69 78 75 149 130
25 19 47 37 50 40 3 3 15 11 28 18 12 6 32 18 45 25 12 6 24 15 27 18 24 28
275 130 354 145 14 2 36 8 48 13 13 5 26 9 31 9 16 1 103 15 122 19 108 23
403 20 534 -6 30 -6 56 -9 59 -6 3 3 11 0 19 -6 7 -6 13 -9 13 -6 0 5 126 -27
160 -40 8 -4 17 -7 20 -8 21 -5 58 -18 75 -24 59 -24 77 -32 156 -69 48 -22
117 -59 154 -81 37 -23 71 -41 75 -41 5 0 10 -4 12 -8 2 -5 26 -23 53 -42 28
-19 55 -39 61 -45 6 -5 26 -21 44 -35 113 -86 299 -282 389 -410 56 -81 136
-204 151 -235 8 -16 17 -32 20 -35 9 -8 120 -241 126 -265 2 -5 15 -41 28 -80
14 -38 35 -106 47 -150 25 -100 25 -100 33 -155 3 -25 8 -54 10 -65 28 -145
23 -545 -8 -725 -3 -14 -7 -45 -10 -70 -3 -25 -8 -55 -10 -66 -2 -12 -7 -38
-10 -58 -3 -19 -11 -57 -17 -83 -6 -27 -13 -57 -14 -68 -5 -29 -54 -235 -65
-270 -22 -69 -54 -181 -56 -192 -2 -10 -86 -280 -100 -323 -3 -8 -5 -16 -5
-17 0 -1 -9 -26 -20 -55 -11 -29 -22 -60 -24 -68 -2 -8 -36 -107 -75 -220 -72
-206 -180 -526 -185 -545 -1 -5 -7 -23 -13 -38 -7 -16 -12 -33 -12 -39 0 -7
-9 -37 -20 -67 -11 -31 -21 -67 -24 -81 -2 -14 -5 -25 -6 -25 -1 0 -3 -7 -5
-15 -2 -8 -11 -40 -19 -70 -15 -53 -60 -254 -70 -315 -28 -167 -36 -341 -23
-475 6 -60 9 -78 21 -135 33 -159 158 -360 278 -446 26 -19 47 -37 48 -41 0
-5 6 -8 14 -8 7 0 19 -6 26 -14 11 -15 110 -65 203 -105 94 -40 205 -17 275
56 37 39 49 66 58 122 3 20 6 38 7 41 2 11 -16 76 -27 94 -29 51 -76 89 -163
132 -86 42 -203 132 -203 156 0 5 -6 16 -14 24 -34 34 -69 170 -69 274 -1 61
13 204 24 242 5 20 9 40 8 45 -3 9 -2 10 53 218 22 83 55 197 75 255 19 58 36
110 38 115 1 6 5 17 8 25 3 8 25 74 49 145 23 72 48 133 53 137 6 4 7 8 3 8
-4 0 4 30 18 68 14 37 36 103 50 147 14 44 29 89 33 100 26 69 159 477 165
508 2 7 6 19 9 27 6 15 46 150 53 179 2 9 15 61 30 116 14 55 28 108 30 118 2
9 6 25 8 35 6 19 52 241 61 287 6 34 14 84 20 135 3 19 7 49 9 65 39 231 39
603 2 865 -24 166 -83 382 -147 535 -7 17 -13 32 -13 35 -1 3 -27 58 -59 122
-31 65 -57 121 -56 124 0 4 -3 10 -8 13 -5 3 -20 26 -34 51 -13 25 -27 49 -32
55 -4 5 -38 57 -76 115 -129 196 -323 418 -486 554 -38 32 -71 63 -73 67 -2 5
-10 9 -17 9 -7 0 -15 3 -17 8 -4 10 -148 113 -219 157 -65 39 -234 128 -272
142 -26 10 -47 21 -47 25 0 4 -8 8 -18 8 -10 0 -22 3 -26 7 -3 4 -16 8 -28 10
-12 2 -26 7 -32 12 -12 9 -183 62 -261 81 -80 19 -116 26 -184 36 -25 4 -55 8
-66 11 -11 2 -65 6 -120 8 -55 2 -102 5 -105 6 -11 3 -152 4 -155 1z"/>
<path d="M3737 8893 c-2 -2 -14 -6 -26 -8 -42 -8 -88 -45 -125 -100 -20 -30
-36 -58 -36 -62 0 -3 -7 -14 -14 -22 -14 -16 -166 -315 -166 -327 0 -5 -14
-39 -41 -99 -20 -44 -90 -241 -93 -261 -2 -11 -6 -26 -10 -32 -4 -7 -9 -20
-11 -29 -2 -10 -11 -45 -20 -78 -9 -33 -18 -68 -20 -78 -2 -10 -7 -27 -10 -37
-3 -10 -8 -29 -10 -42 -3 -13 -7 -34 -10 -48 -8 -39 -15 -72 -20 -105 -3 -16
-7 -41 -10 -55 -3 -14 -7 -41 -10 -60 -3 -19 -10 -62 -16 -95 -6 -33 -13 -73
-16 -90 -2 -16 -16 -75 -29 -130 -14 -55 -26 -109 -28 -120 -8 -49 -72 -227
-107 -300 -45 -95 -107 -195 -120 -195 -5 0 -9 -5 -9 -11 0 -16 -99 -108 -157
-145 -28 -18 -76 -45 -106 -58 -53 -25 -187 -64 -217 -64 -8 0 -26 -3 -40 -6
-14 -3 -59 -7 -100 -11 -147 -11 -229 -90 -236 -229 -6 -131 89 -228 226 -231
62 -2 152 7 219 20 14 3 38 8 53 10 15 2 46 9 70 16 24 7 46 13 50 13 3 1 10
4 14 9 4 4 18 7 30 7 13 0 26 5 29 10 4 6 11 8 16 5 5 -4 9 -1 9 4 0 6 3 10 8
9 9 -2 39 9 72 26 63 31 116 62 122 71 4 6 8 6 8 2 0 -4 6 -3 13 3 6 5 37 29
67 52 76 58 240 227 240 247 0 4 11 21 25 37 14 16 25 35 25 42 0 6 4 12 8 12
10 0 142 263 142 284 0 2 5 17 12 33 6 15 12 30 13 33 1 3 4 12 7 20 7 19 33
105 43 145 5 17 9 35 11 40 16 60 54 217 58 240 3 17 8 44 11 60 19 101 25
133 30 160 10 62 16 91 20 115 3 14 7 34 9 45 4 17 29 125 41 175 2 8 14 47
25 85 12 39 22 76 23 83 0 6 3 12 7 12 3 0 6 8 7 18 1 9 6 28 11 42 5 14 10
28 11 32 1 4 15 40 32 80 17 40 38 91 47 113 32 77 167 334 181 345 20 16 44
97 44 148 0 91 -49 170 -128 205 -36 16 -139 30 -148 20z"/>
<path d="M6218 8175 c-2 -2 -25 -5 -53 -8 -127 -15 -308 -75 -387 -129 -14
-10 -29 -18 -32 -18 -6 0 -116 -70 -126 -80 -3 -3 -22 -18 -43 -33 -125 -94
-263 -272 -330 -429 -37 -87 -81 -237 -92 -313 -3 -22 -8 -51 -10 -65 -11 -60
-24 -175 -30 -280 -14 -214 -16 -238 -31 -415 -2 -33 -7 -89 -9 -125 -2 -36
-7 -78 -9 -95 -3 -16 -8 -59 -12 -95 -6 -60 -29 -202 -37 -225 -2 -5 -7 -23
-11 -40 -13 -50 -48 -158 -64 -195 -9 -19 -16 -37 -17 -40 -5 -25 -31 -80 -37
-80 -4 0 -8 -6 -8 -14 0 -15 -44 -100 -87 -168 -13 -21 -23 -42 -23 -47 0 -6
-8 -15 -17 -20 -10 -6 -14 -11 -10 -11 4 0 3 -6 -3 -12 -5 -7 -41 -54 -78
-104 -101 -137 -226 -275 -331 -364 -29 -25 -66 -56 -81 -70 -39 -34 -46 -39
-120 -93 -36 -25 -69 -50 -75 -54 -80 -63 -465 -275 -465 -257 0 4 -6 2 -13
-4 -33 -27 -386 -140 -492 -157 -52 -9 -102 -17 -125 -20 -48 -7 -156 -16
-231 -19 -86 -4 -151 -28 -189 -70 -14 -16 -33 -37 -43 -47 -9 -10 -15 -19
-13 -19 2 0 -2 -19 -8 -42 -26 -90 2 -179 77 -243 48 -42 100 -58 182 -58 91
1 272 15 340 28 17 3 55 10 85 16 119 22 277 63 370 97 8 3 22 6 30 8 9 2 32
10 53 19 20 8 39 15 42 15 3 0 29 11 59 24 30 13 57 22 60 18 3 -3 6 0 6 6 0
7 5 12 11 12 17 0 264 121 267 131 2 5 8 9 13 9 5 0 34 15 65 33 30 17 63 37
72 42 10 6 32 20 49 33 17 12 36 22 42 22 6 0 11 4 11 8 0 4 15 16 33 27 17
10 34 21 37 25 3 3 21 17 40 30 40 28 39 28 173 140 101 84 255 235 310 304
18 22 42 50 55 63 12 13 22 26 22 28 0 5 35 48 63 77 9 10 14 18 10 18 -3 0 3
10 14 23 27 28 133 194 133 206 0 5 4 11 9 13 10 4 76 130 73 141 -1 4 2 7 8
7 5 0 10 4 10 9 0 4 14 39 32 77 17 38 33 74 34 79 2 6 15 42 30 80 35 92 79
247 98 343 21 106 31 169 50 327 14 119 23 221 41 490 12 174 15 212 20 260
19 167 25 208 37 245 7 19 13 40 14 47 12 67 72 181 133 255 45 53 132 128
150 128 5 0 11 4 13 8 8 21 159 93 225 108 36 8 213 11 213 4 0 -3 9 -6 19 -7
52 -4 267 -104 296 -137 5 -7 26 -24 45 -38 61 -44 199 -194 200 -215 0 -7 3
-13 8 -13 6 0 64 -94 68 -110 0 -3 11 -27 24 -55 13 -27 25 -52 25 -55 1 -3 9
-30 19 -61 9 -31 19 -66 21 -78 2 -13 6 -30 9 -39 27 -94 28 -604 1 -827 -2
-16 -6 -52 -9 -80 -6 -54 -16 -128 -22 -160 -2 -10 -6 -37 -10 -60 -3 -22 -10
-60 -15 -85 -5 -25 -11 -58 -14 -75 -12 -77 -62 -288 -101 -430 -36 -130 -121
-401 -132 -420 -4 -5 -7 -14 -9 -20 -19 -94 -229 -552 -339 -743 -30 -52 -54
-98 -54 -103 0 -5 -4 -9 -8 -9 -5 0 -14 -11 -20 -24 -22 -48 -186 -290 -259
-381 -130 -162 -182 -222 -314 -354 -111 -112 -190 -182 -369 -324 -26 -21
-258 -177 -263 -177 -3 0 -34 -18 -69 -39 -128 -77 -352 -180 -536 -247 -54
-19 -106 -38 -117 -43 -11 -5 -38 -15 -60 -21 -22 -6 -47 -14 -55 -17 -8 -3
-20 -7 -26 -8 -60 -13 -286 -142 -355 -202 -110 -96 -218 -250 -234 -334 -2
-11 -7 -24 -11 -30 -23 -39 -24 -305 0 -369 3 -8 7 -26 10 -40 9 -55 48 -138
78 -169 96 -98 229 -98 327 0 67 67 81 134 52 249 -11 41 -22 92 -25 114 -4
21 -9 42 -12 47 -3 5 -1 9 4 9 6 0 8 9 5 20 -9 33 26 107 71 153 24 23 72 56
107 74 57 29 200 80 239 86 8 2 21 6 28 10 6 5 42 19 80 31 115 40 237 90 244
101 4 5 8 6 8 2 0 -4 10 -2 23 5 12 7 24 13 27 13 3 0 19 9 37 18 18 9 39 17
48 17 8 0 15 4 15 8 0 5 24 19 53 32 140 63 419 240 592 376 11 8 36 27 55 42
179 139 451 415 620 627 39 50 76 97 83 105 7 8 35 47 62 85 27 39 53 72 57
73 5 2 8 8 8 13 0 7 56 95 70 109 3 3 13 19 23 35 10 17 48 82 86 145 81 135
126 217 177 320 54 109 134 279 134 285 0 3 11 28 25 57 14 28 25 56 25 61 0
5 14 41 31 80 17 39 33 78 34 86 2 9 4 17 5 19 2 1 3 5 4 10 1 4 14 39 29 78
15 39 29 79 31 90 2 10 11 37 20 59 23 60 122 404 132 465 3 14 10 43 16 65 5
22 12 49 14 60 2 11 11 55 20 98 19 94 19 97 39 222 18 112 24 152 30 210 2
22 7 67 11 100 12 108 13 119 19 245 8 155 8 236 0 250 -3 5 -3 10 2 10 4 0 7
17 6 37 -6 104 -15 231 -18 252 -2 13 -7 45 -10 70 -4 25 -9 53 -12 61 -3 8
-8 25 -10 37 -23 134 -192 493 -278 590 -5 6 -21 26 -35 45 -52 69 -100 118
-229 237 -84 76 -310 201 -411 227 -13 3 -54 13 -125 31 -40 10 -250 24 -257
18z"/>
<path d="M6262 7021 c-54 -21 -106 -79 -121 -134 -7 -23 -14 -116 -16 -207 -2
-91 -5 -165 -5 -165 -1 0 -3 -27 -5 -60 -4 -67 -13 -180 -15 -180 -1 0 -3 -22
-5 -50 -3 -46 -28 -225 -40 -285 -3 -13 -7 -40 -10 -60 -8 -54 -13 -79 -18
-88 -3 -4 -8 -24 -11 -44 -5 -33 -20 -104 -31 -148 -28 -107 -47 -178 -52
-190 -3 -8 -7 -17 -8 -20 0 -3 -12 -39 -25 -80 -13 -41 -24 -77 -25 -80 -2 -5
-8 -22 -32 -80 -8 -19 -16 -42 -18 -50 -2 -8 -11 -33 -20 -55 -126 -301 -288
-588 -451 -802 -20 -26 -41 -59 -47 -73 -17 -42 -19 -119 -5 -168 16 -58 87
-133 141 -149 46 -14 143 -10 177 6 24 12 91 96 190 240 64 92 160 249 160
261 0 5 4 10 8 10 4 0 15 15 23 33 9 17 46 91 82 162 77 153 117 242 117 260
0 8 3 15 8 17 10 4 33 69 160 448 7 21 10 32 16 55 2 11 18 74 34 140 17 66
36 147 43 180 6 33 13 67 14 75 2 8 4 15 5 15 1 0 3 16 6 35 2 19 11 73 19
120 24 145 41 282 50 420 15 213 18 271 19 396 1 128 -1 145 -22 190 -34 72
-98 114 -183 119 -45 3 -77 -1 -107 -14z"/>
<path d="M4835 3629 c-43 -9 -80 -25 -96 -41 -8 -7 -54 -39 -104 -71 -49 -31
-94 -60 -100 -65 -58 -46 -531 -275 -595 -287 -10 -2 -27 -8 -37 -13 -17 -9
-161 -59 -193 -67 -8 -2 -40 -11 -70 -20 -30 -9 -66 -18 -80 -21 -14 -3 -47
-11 -75 -19 -46 -13 -88 -23 -125 -29 -8 -2 -40 -8 -70 -14 -30 -6 -69 -13
-87 -16 -105 -14 -165 -56 -203 -140 -33 -73 -33 -136 0 -205 25 -53 90 -107
140 -116 19 -3 36 -8 38 -9 2 -2 20 0 40 5 62 16 75 19 137 30 33 6 71 13 85
16 14 3 34 7 45 8 11 2 20 4 20 5 0 1 11 4 25 6 14 3 43 9 65 15 22 6 48 13
58 15 10 2 27 6 37 9 10 3 28 8 40 10 58 11 334 104 475 161 149 59 461 209
495 238 8 7 41 28 73 47 86 50 87 51 142 89 154 106 182 142 189 245 2 37 -11
93 -25 105 -3 3 -11 15 -17 27 -7 12 -32 38 -56 58 -48 39 -116 57 -171 44z"/>
<path d="M6788 2385 c-2 -2 -25 -6 -51 -9 -123 -17 -251 -79 -407 -200 -96
-74 -109 -86 -430 -407 -351 -352 -422 -417 -570 -526 -47 -35 -90 -67 -97
-73 -6 -5 -28 -19 -47 -29 -19 -11 -54 -32 -78 -47 -55 -35 -251 -128 -303
-143 -22 -7 -49 -16 -60 -21 -20 -9 -117 -38 -151 -44 -162 -33 -206 -55 -251
-124 -30 -48 -32 -56 -37 -120 -10 -117 65 -214 183 -237 11 -2 26 -7 31 -10
6 -3 10 -3 10 2 0 4 21 8 48 9 26 0 61 3 77 7 17 3 44 9 60 12 17 3 39 9 50
12 11 4 25 8 32 9 29 5 169 48 178 54 6 4 28 13 50 20 79 26 256 113 394 195
50 30 166 110 169 117 2 4 10 8 18 8 8 0 14 4 14 9 0 4 17 20 38 33 20 14 49
36 63 49 14 13 47 42 75 64 58 46 360 349 523 524 200 213 335 333 424 376 61
29 144 25 179 -8 7 -7 30 -24 50 -38 37 -25 120 -98 228 -200 282 -266 529
-434 769 -522 97 -36 199 -62 286 -74 102 -13 294 -8 425 12 21 3 95 23 160
42 30 9 60 18 65 19 21 4 225 94 271 120 102 57 114 64 155 89 114 73 152 181
104 299 -37 91 -108 138 -211 139 -55 0 -71 -5 -150 -48 -156 -85 -229 -121
-264 -129 -3 -1 -9 -4 -15 -8 -8 -5 -67 -23 -110 -34 -102 -25 -164 -32 -275
-30 -70 1 -131 5 -137 9 -6 4 -28 9 -49 13 -22 3 -43 10 -48 15 -6 5 -17 9
-26 9 -23 0 -240 110 -240 121 0 5 -5 9 -10 9 -6 0 -36 19 -67 42 -74 54 -74
54 -262 213 -13 11 -36 31 -51 45 -15 14 -49 43 -75 65 -27 22 -53 45 -59 50
-32 32 -202 154 -243 175 -26 13 -50 27 -53 31 -4 5 -75 32 -90 34 -3 0 -9 3
-15 6 -19 12 -188 32 -197 24z"/>
<path d="M6987 794 c-1 -1 -33 -5 -72 -8 -140 -12 -185 -18 -260 -32 -11 -2
-32 -6 -46 -9 -83 -15 -271 -69 -380 -109 -140 -50 -333 -138 -344 -155 -3 -6
-23 -20 -44 -31 -123 -62 -172 -178 -128 -300 11 -30 24 -56 28 -58 5 -2 9 -8
9 -13 0 -5 8 -17 18 -27 55 -55 191 -66 258 -20 72 47 260 148 278 148 2 0 21
8 42 17 22 9 44 18 49 19 6 1 35 12 66 23 56 20 188 56 244 66 164 29 254 38
390 38 90 0 251 -9 291 -17 22 -5 61 -11 129 -21 22 -4 58 -11 80 -16 22 -5
54 -12 70 -15 17 -3 38 -10 48 -15 9 -5 17 -8 17 -5 0 3 15 0 33 -6 39 -12
138 -18 152 -10 6 4 18 8 29 9 34 6 99 66 119 112 53 120 11 257 -95 309 -38
18 -140 47 -208 58 -14 2 -36 7 -50 11 -39 10 -40 10 -120 22 -168 26 -267 33
-448 35 -84 1 -154 1 -155 0z"/>
</g>
</svg>
